<mxfile host="app.diagrams.net" agent="Mozilla/5.0 (Windows NT 10.0; Win64; x64) AppleWebKit/537.36 (KHTML, like Gecko) Chrome/128.0.0.0 YaBrowser/24.10.0.0 Safari/537.36" version="24.8.6">
  <diagram name="Страница — 1" id="NACyyhNyBP_dQOALniWT">
    <mxGraphModel dx="2049" dy="2253" grid="1" gridSize="10" guides="1" tooltips="1" connect="1" arrows="1" fold="1" page="1" pageScale="1" pageWidth="827" pageHeight="1169" math="0" shadow="0">
      <root>
        <object label="" id="0">
          <mxCell />
        </object>
        <mxCell id="1" parent="0" />
        <mxCell id="ukiX_DLCDr62V89YQX7C-34" value="" style="rounded=0;whiteSpace=wrap;html=1;" parent="1" vertex="1">
          <mxGeometry x="670" y="775" width="120" height="130" as="geometry" />
        </mxCell>
        <mxCell id="ukiX_DLCDr62V89YQX7C-35" value="&lt;span style=&quot;font-family: &amp;quot;YS Text&amp;quot;, -apple-system, BlinkMacSystemFont, Arial, Helvetica, sans-serif; font-size: 13px; text-align: start; white-space-collapse: preserve; background-color: rgba(7, 28, 71, 0.05);&quot;&gt;departments&lt;/span&gt;" style="rounded=0;whiteSpace=wrap;html=1;" parent="1" vertex="1">
          <mxGeometry x="670" y="755" width="120" height="60" as="geometry" />
        </mxCell>
        <mxCell id="ukiX_DLCDr62V89YQX7C-36" value="&lt;span style=&quot;font-family: &amp;quot;YS Text&amp;quot;, -apple-system, BlinkMacSystemFont, Arial, Helvetica, sans-serif; font-size: 13px; text-align: left; white-space-collapse: preserve; background-color: rgba(7, 28, 71, 0.05);&quot;&gt;id_organization&lt;/span&gt;" style="rounded=0;whiteSpace=wrap;html=1;" parent="1" vertex="1">
          <mxGeometry x="670" y="845" width="120" height="30" as="geometry" />
        </mxCell>
        <mxCell id="ukiX_DLCDr62V89YQX7C-38" value="&lt;span style=&quot;font-family: &amp;quot;YS Text&amp;quot;, -apple-system, BlinkMacSystemFont, Arial, Helvetica, sans-serif; font-size: 13px; text-align: left; white-space-collapse: preserve; background-color: rgba(7, 28, 71, 0.05);&quot;&gt;name&lt;/span&gt;" style="rounded=0;whiteSpace=wrap;html=1;" parent="1" vertex="1">
          <mxGeometry x="670" y="875" width="120" height="30" as="geometry" />
        </mxCell>
        <mxCell id="ukiX_DLCDr62V89YQX7C-39" value="&lt;span style=&quot;font-family: &amp;quot;YS Text&amp;quot;, -apple-system, BlinkMacSystemFont, Arial, Helvetica, sans-serif; font-size: 13px; text-align: left; white-space-collapse: preserve; background-color: rgba(7, 28, 71, 0.05);&quot;&gt;the_parent&lt;/span&gt;" style="rounded=0;whiteSpace=wrap;html=1;" parent="1" vertex="1">
          <mxGeometry x="670" y="905" width="120" height="30" as="geometry" />
        </mxCell>
        <mxCell id="ukiX_DLCDr62V89YQX7C-42" value="&lt;span style=&quot;font-family: &amp;quot;YS Text&amp;quot;, -apple-system, BlinkMacSystemFont, Arial, Helvetica, sans-serif; font-size: 13px; text-align: left; white-space-collapse: preserve; background-color: rgba(7, 28, 71, 0.05);&quot;&gt;comment&lt;/span&gt;" style="rounded=0;whiteSpace=wrap;html=1;" parent="1" vertex="1">
          <mxGeometry x="670" y="935" width="120" height="30" as="geometry" />
        </mxCell>
        <mxCell id="ukiX_DLCDr62V89YQX7C-43" value="&#xa;&lt;span style=&quot;color: rgb(0, 0, 0); font-family: &amp;quot;YS Text&amp;quot;, -apple-system, BlinkMacSystemFont, Arial, Helvetica, sans-serif; font-size: 13px; font-style: normal; font-variant-ligatures: normal; font-variant-caps: normal; font-weight: 400; letter-spacing: normal; orphans: 2; text-align: left; text-indent: 0px; text-transform: none; widows: 2; word-spacing: 0px; -webkit-text-stroke-width: 0px; white-space: pre-wrap; background-color: rgba(7, 28, 71, 0.05); text-decoration-thickness: initial; text-decoration-style: initial; text-decoration-color: initial; display: inline !important; float: none;&quot;&gt;Comment&lt;/span&gt;&#xa;&#xa;" style="rounded=0;whiteSpace=wrap;html=1;" parent="1" vertex="1">
          <mxGeometry x="414" y="815" width="120" height="30" as="geometry" />
        </mxCell>
        <mxCell id="ukiX_DLCDr62V89YQX7C-44" value="&lt;span style=&quot;font-family: &amp;quot;YS Text&amp;quot;, -apple-system, BlinkMacSystemFont, Arial, Helvetica, sans-serif; font-size: 13px; text-align: start; white-space-collapse: preserve; background-color: rgba(7, 28, 71, 0.05);&quot;&gt;organization&lt;/span&gt;" style="rounded=0;whiteSpace=wrap;html=1;" parent="1" vertex="1">
          <mxGeometry x="414" y="785" width="120" height="60" as="geometry" />
        </mxCell>
        <mxCell id="ukiX_DLCDr62V89YQX7C-45" value="&lt;span style=&quot;font-family: &amp;quot;YS Text&amp;quot;, -apple-system, BlinkMacSystemFont, Arial, Helvetica, sans-serif; font-size: 13px; text-align: left; white-space-collapse: preserve; background-color: rgba(7, 28, 71, 0.05);&quot;&gt;name&lt;/span&gt;" style="rounded=0;whiteSpace=wrap;html=1;" parent="1" vertex="1">
          <mxGeometry x="414" y="875" width="120" height="30" as="geometry" />
        </mxCell>
        <mxCell id="ukiX_DLCDr62V89YQX7C-48" value="&lt;span style=&quot;font-family: &amp;quot;YS Text&amp;quot;, -apple-system, BlinkMacSystemFont, Arial, Helvetica, sans-serif; font-size: 13px; text-align: left; white-space-collapse: preserve; background-color: rgba(7, 28, 71, 0.05);&quot;&gt;comment&lt;/span&gt;" style="rounded=0;whiteSpace=wrap;html=1;" parent="1" vertex="1">
          <mxGeometry x="414" y="905" width="120" height="30" as="geometry" />
        </mxCell>
        <mxCell id="ukiX_DLCDr62V89YQX7C-124" style="edgeStyle=orthogonalEdgeStyle;rounded=0;orthogonalLoop=1;jettySize=auto;html=1;entryX=0;entryY=0.5;entryDx=0;entryDy=0;" parent="1" source="ukiX_DLCDr62V89YQX7C-56" target="ukiX_DLCDr62V89YQX7C-36" edge="1">
          <mxGeometry relative="1" as="geometry" />
        </mxCell>
        <mxCell id="ukiX_DLCDr62V89YQX7C-56" value="&lt;div style=&quot;text-align: left;&quot;&gt;&lt;font face=&quot;YS Text, -apple-system, BlinkMacSystemFont, Arial, Helvetica, sans-serif&quot;&gt;&lt;span style=&quot;font-size: 13px; white-space-collapse: preserve; background-color: rgba(7, 28, 71, 0.05);&quot;&gt;id_o&lt;/span&gt;&lt;/font&gt;&lt;span style=&quot;background-color: rgba(7, 28, 71, 0.05); font-family: &amp;quot;YS Text&amp;quot;, -apple-system, BlinkMacSystemFont, Arial, Helvetica, sans-serif; font-size: 13px; white-space-collapse: preserve;&quot;&gt;rganization&lt;/span&gt;&lt;/div&gt;" style="rounded=0;whiteSpace=wrap;html=1;" parent="1" vertex="1">
          <mxGeometry x="414" y="845" width="120" height="30" as="geometry" />
        </mxCell>
        <mxCell id="ukiX_DLCDr62V89YQX7C-118" style="edgeStyle=orthogonalEdgeStyle;rounded=0;orthogonalLoop=1;jettySize=auto;html=1;entryX=0;entryY=0.5;entryDx=0;entryDy=0;" parent="1" source="ukiX_DLCDr62V89YQX7C-57" target="ukiX_DLCDr62V89YQX7C-96" edge="1">
          <mxGeometry relative="1" as="geometry" />
        </mxCell>
        <mxCell id="ukiX_DLCDr62V89YQX7C-57" value="id" style="rounded=0;whiteSpace=wrap;html=1;" parent="1" vertex="1">
          <mxGeometry x="670" y="815" width="120" height="30" as="geometry" />
        </mxCell>
        <mxCell id="ukiX_DLCDr62V89YQX7C-58" value="position" style="rounded=0;whiteSpace=wrap;html=1;" parent="1" vertex="1">
          <mxGeometry x="1480" y="350" width="120" height="60" as="geometry" />
        </mxCell>
        <mxCell id="ukiX_DLCDr62V89YQX7C-127" style="edgeStyle=orthogonalEdgeStyle;rounded=0;orthogonalLoop=1;jettySize=auto;html=1;entryX=1;entryY=0.5;entryDx=0;entryDy=0;" parent="1" source="ukiX_DLCDr62V89YQX7C-59" target="ukiX_DLCDr62V89YQX7C-97" edge="1">
          <mxGeometry relative="1" as="geometry" />
        </mxCell>
        <mxCell id="ukiX_DLCDr62V89YQX7C-59" value="id" style="rounded=0;whiteSpace=wrap;html=1;" parent="1" vertex="1">
          <mxGeometry x="1480" y="410" width="120" height="30" as="geometry" />
        </mxCell>
        <mxCell id="ukiX_DLCDr62V89YQX7C-60" value="name" style="rounded=0;whiteSpace=wrap;html=1;" parent="1" vertex="1">
          <mxGeometry x="1480" y="440" width="120" height="30" as="geometry" />
        </mxCell>
        <mxCell id="ukiX_DLCDr62V89YQX7C-61" value="employee_data" style="rounded=0;whiteSpace=wrap;html=1;" parent="1" vertex="1">
          <mxGeometry x="470" y="260" width="120" height="60" as="geometry" />
        </mxCell>
        <mxCell id="ukiX_DLCDr62V89YQX7C-62" value="last_name" style="rounded=0;whiteSpace=wrap;html=1;" parent="1" vertex="1">
          <mxGeometry x="470" y="350" width="120" height="30" as="geometry" />
        </mxCell>
        <mxCell id="ukiX_DLCDr62V89YQX7C-63" value="first_name" style="rounded=0;whiteSpace=wrap;html=1;" parent="1" vertex="1">
          <mxGeometry x="470" y="380" width="120" height="30" as="geometry" />
        </mxCell>
        <mxCell id="ukiX_DLCDr62V89YQX7C-64" value="patronymic" style="rounded=0;whiteSpace=wrap;html=1;" parent="1" vertex="1">
          <mxGeometry x="470" y="410" width="120" height="30" as="geometry" />
        </mxCell>
        <mxCell id="ukiX_DLCDr62V89YQX7C-65" value="date_of_birth" style="rounded=0;whiteSpace=wrap;html=1;" parent="1" vertex="1">
          <mxGeometry x="470" y="440" width="120" height="30" as="geometry" />
        </mxCell>
        <mxCell id="ukiX_DLCDr62V89YQX7C-70" value="passport_details" style="rounded=0;whiteSpace=wrap;html=1;" parent="1" vertex="1">
          <mxGeometry x="760" y="20" width="120" height="60" as="geometry" />
        </mxCell>
        <mxCell id="ukiX_DLCDr62V89YQX7C-71" value="series" style="rounded=0;whiteSpace=wrap;html=1;" parent="1" vertex="1">
          <mxGeometry x="760" y="110" width="120" height="30" as="geometry" />
        </mxCell>
        <mxCell id="ukiX_DLCDr62V89YQX7C-72" value="number" style="rounded=0;whiteSpace=wrap;html=1;" parent="1" vertex="1">
          <mxGeometry x="760" y="140" width="120" height="30" as="geometry" />
        </mxCell>
        <mxCell id="ukiX_DLCDr62V89YQX7C-73" value="date_of_issue" style="rounded=0;whiteSpace=wrap;html=1;" parent="1" vertex="1">
          <mxGeometry x="760" y="170" width="120" height="30" as="geometry" />
        </mxCell>
        <mxCell id="ukiX_DLCDr62V89YQX7C-74" value="issued_by" style="rounded=0;whiteSpace=wrap;html=1;" parent="1" vertex="1">
          <mxGeometry x="760" y="230" width="120" height="30" as="geometry" />
        </mxCell>
        <mxCell id="ukiX_DLCDr62V89YQX7C-75" value="department_code" style="rounded=0;whiteSpace=wrap;html=1;" parent="1" vertex="1">
          <mxGeometry x="760" y="200" width="120" height="30" as="geometry" />
        </mxCell>
        <mxCell id="ukiX_DLCDr62V89YQX7C-76" value="id" style="rounded=0;whiteSpace=wrap;html=1;" parent="1" vertex="1">
          <mxGeometry x="760" y="80" width="120" height="30" as="geometry" />
        </mxCell>
        <mxCell id="ukiX_DLCDr62V89YQX7C-78" value="id" style="rounded=0;whiteSpace=wrap;html=1;" parent="1" vertex="1">
          <mxGeometry x="470" y="320" width="120" height="30" as="geometry" />
        </mxCell>
        <mxCell id="ukiX_DLCDr62V89YQX7C-79" value="registration" style="rounded=0;whiteSpace=wrap;html=1;" parent="1" vertex="1">
          <mxGeometry x="240" y="575" width="120" height="60" as="geometry" />
        </mxCell>
        <mxCell id="ukiX_DLCDr62V89YQX7C-80" value="region" style="rounded=0;whiteSpace=wrap;html=1;" parent="1" vertex="1">
          <mxGeometry x="240" y="665" width="120" height="30" as="geometry" />
        </mxCell>
        <mxCell id="ukiX_DLCDr62V89YQX7C-81" value="settlement" style="rounded=0;whiteSpace=wrap;html=1;" parent="1" vertex="1">
          <mxGeometry x="240" y="695" width="120" height="30" as="geometry" />
        </mxCell>
        <mxCell id="ukiX_DLCDr62V89YQX7C-82" value="street" style="rounded=0;whiteSpace=wrap;html=1;" parent="1" vertex="1">
          <mxGeometry x="240" y="725" width="120" height="30" as="geometry" />
        </mxCell>
        <mxCell id="ukiX_DLCDr62V89YQX7C-83" value="house" style="rounded=0;whiteSpace=wrap;html=1;" parent="1" vertex="1">
          <mxGeometry x="240" y="755" width="120" height="30" as="geometry" />
        </mxCell>
        <mxCell id="ukiX_DLCDr62V89YQX7C-84" value="building" style="rounded=0;whiteSpace=wrap;html=1;" parent="1" vertex="1">
          <mxGeometry x="240" y="785" width="120" height="30" as="geometry" />
        </mxCell>
        <mxCell id="ukiX_DLCDr62V89YQX7C-85" value="apartment" style="rounded=0;whiteSpace=wrap;html=1;" parent="1" vertex="1">
          <mxGeometry x="240" y="815" width="120" height="30" as="geometry" />
        </mxCell>
        <mxCell id="ukiX_DLCDr62V89YQX7C-89" value="id" style="rounded=0;whiteSpace=wrap;html=1;" parent="1" vertex="1">
          <mxGeometry x="240" y="635" width="120" height="30" as="geometry" />
        </mxCell>
        <mxCell id="ukiX_DLCDr62V89YQX7C-92" value="hr_operations" style="rounded=0;whiteSpace=wrap;html=1;" parent="1" vertex="1">
          <mxGeometry x="1060" y="220" width="120" height="60" as="geometry" />
        </mxCell>
        <mxCell id="ukiX_DLCDr62V89YQX7C-93" value="id" style="rounded=0;whiteSpace=wrap;html=1;" parent="1" vertex="1">
          <mxGeometry x="1060" y="280" width="120" height="30" as="geometry" />
        </mxCell>
        <mxCell id="ULJUNEGUPfUtDkXaz_tW-1" style="edgeStyle=orthogonalEdgeStyle;rounded=0;orthogonalLoop=1;jettySize=auto;html=1;entryX=1;entryY=0.5;entryDx=0;entryDy=0;" edge="1" parent="1" source="ukiX_DLCDr62V89YQX7C-94" target="ukiX_DLCDr62V89YQX7C-78">
          <mxGeometry relative="1" as="geometry" />
        </mxCell>
        <mxCell id="ukiX_DLCDr62V89YQX7C-94" value="id_employee" style="rounded=0;whiteSpace=wrap;html=1;" parent="1" vertex="1">
          <mxGeometry x="1060" y="310" width="120" height="30" as="geometry" />
        </mxCell>
        <mxCell id="ukiX_DLCDr62V89YQX7C-95" value="tip_operations" style="rounded=0;whiteSpace=wrap;html=1;" parent="1" vertex="1">
          <mxGeometry x="1060" y="340" width="120" height="30" as="geometry" />
        </mxCell>
        <mxCell id="ukiX_DLCDr62V89YQX7C-96" value="id_department" style="rounded=0;whiteSpace=wrap;html=1;" parent="1" vertex="1">
          <mxGeometry x="1060" y="370" width="120" height="30" as="geometry" />
        </mxCell>
        <mxCell id="ukiX_DLCDr62V89YQX7C-97" value="id_position" style="rounded=0;whiteSpace=wrap;html=1;" parent="1" vertex="1">
          <mxGeometry x="1060" y="400" width="120" height="30" as="geometry" />
        </mxCell>
        <mxCell id="ukiX_DLCDr62V89YQX7C-98" value="salary_setup" style="rounded=0;whiteSpace=wrap;html=1;" parent="1" vertex="1">
          <mxGeometry x="1060" y="430" width="120" height="30" as="geometry" />
        </mxCell>
        <mxCell id="ukiX_DLCDr62V89YQX7C-100" value="change_history" style="rounded=0;whiteSpace=wrap;html=1;" parent="1" vertex="1">
          <mxGeometry x="1255" y="-27.5" width="170" height="60" as="geometry" />
        </mxCell>
        <mxCell id="ukiX_DLCDr62V89YQX7C-101" value="date_and_time_of_operation" style="rounded=0;html=1;" parent="1" vertex="1">
          <mxGeometry x="1255" y="62.5" width="170" height="30" as="geometry" />
        </mxCell>
        <mxCell id="ukiX_DLCDr62V89YQX7C-102" value="who_changed_It" style="rounded=0;whiteSpace=wrap;html=1;" parent="1" vertex="1">
          <mxGeometry x="1255" y="92.5" width="170" height="30" as="geometry" />
        </mxCell>
        <mxCell id="ukiX_DLCDr62V89YQX7C-103" value="object_of_operation" style="rounded=0;whiteSpace=wrap;html=1;" parent="1" vertex="1">
          <mxGeometry x="1255" y="122.5" width="170" height="30" as="geometry" />
        </mxCell>
        <mxCell id="ukiX_DLCDr62V89YQX7C-104" value="json" style="rounded=0;whiteSpace=wrap;html=1;" parent="1" vertex="1">
          <mxGeometry x="1255" y="152.5" width="170" height="30" as="geometry" />
        </mxCell>
        <mxCell id="ukiX_DLCDr62V89YQX7C-107" value="id" style="rounded=0;whiteSpace=wrap;html=1;" parent="1" vertex="1">
          <mxGeometry x="1255" y="32.5" width="170" height="30" as="geometry" />
        </mxCell>
        <mxCell id="ukiX_DLCDr62V89YQX7C-108" value="passport_skan" style="rounded=0;whiteSpace=wrap;html=1;" parent="1" vertex="1">
          <mxGeometry x="20" y="360" width="120" height="60" as="geometry" />
        </mxCell>
        <mxCell id="ukiX_DLCDr62V89YQX7C-123" style="edgeStyle=orthogonalEdgeStyle;rounded=0;orthogonalLoop=1;jettySize=auto;html=1;entryX=0;entryY=0.5;entryDx=0;entryDy=0;" parent="1" source="ukiX_DLCDr62V89YQX7C-109" target="ukiX_DLCDr62V89YQX7C-78" edge="1">
          <mxGeometry relative="1" as="geometry" />
        </mxCell>
        <mxCell id="ukiX_DLCDr62V89YQX7C-109" value="id_employee" style="rounded=0;whiteSpace=wrap;html=1;" parent="1" vertex="1">
          <mxGeometry x="20" y="420" width="120" height="30" as="geometry" />
        </mxCell>
        <mxCell id="ukiX_DLCDr62V89YQX7C-110" value="id" style="rounded=0;whiteSpace=wrap;html=1;" parent="1" vertex="1">
          <mxGeometry x="20" y="450" width="120" height="30" as="geometry" />
        </mxCell>
        <mxCell id="ukiX_DLCDr62V89YQX7C-122" style="edgeStyle=orthogonalEdgeStyle;rounded=0;orthogonalLoop=1;jettySize=auto;html=1;entryX=1;entryY=0.5;entryDx=0;entryDy=0;" parent="1" source="ukiX_DLCDr62V89YQX7C-119" target="ukiX_DLCDr62V89YQX7C-89" edge="1">
          <mxGeometry relative="1" as="geometry" />
        </mxCell>
        <mxCell id="ukiX_DLCDr62V89YQX7C-119" value="id_registration" style="rounded=0;whiteSpace=wrap;html=1;" parent="1" vertex="1">
          <mxGeometry x="470" y="470" width="120" height="30" as="geometry" />
        </mxCell>
        <mxCell id="ukiX_DLCDr62V89YQX7C-128" style="edgeStyle=orthogonalEdgeStyle;rounded=0;orthogonalLoop=1;jettySize=auto;html=1;entryX=0;entryY=0.5;entryDx=0;entryDy=0;" parent="1" source="ukiX_DLCDr62V89YQX7C-120" target="ukiX_DLCDr62V89YQX7C-76" edge="1">
          <mxGeometry relative="1" as="geometry" />
        </mxCell>
        <mxCell id="ukiX_DLCDr62V89YQX7C-120" value="id_passport" style="rounded=0;whiteSpace=wrap;html=1;" parent="1" vertex="1">
          <mxGeometry x="470" y="500" width="120" height="30" as="geometry" />
        </mxCell>
        <mxCell id="ukiX_DLCDr62V89YQX7C-125" value="id_operations" style="rounded=0;whiteSpace=wrap;html=1;" parent="1" vertex="1">
          <mxGeometry x="1255" y="182.5" width="170" height="35" as="geometry" />
        </mxCell>
        <mxCell id="ukiX_DLCDr62V89YQX7C-130" value="id_user" style="rounded=0;whiteSpace=wrap;html=1;" parent="1" vertex="1">
          <mxGeometry x="470" y="530" width="120" height="30" as="geometry" />
        </mxCell>
        <mxCell id="ukiX_DLCDr62V89YQX7C-131" value="user" style="rounded=0;whiteSpace=wrap;html=1;" parent="1" vertex="1">
          <mxGeometry x="1030" y="555" width="120" height="60" as="geometry" />
        </mxCell>
        <mxCell id="ukiX_DLCDr62V89YQX7C-132" value="id" style="rounded=0;whiteSpace=wrap;html=1;" parent="1" vertex="1">
          <mxGeometry x="1030" y="615" width="120" height="35" as="geometry" />
        </mxCell>
        <mxCell id="ukiX_DLCDr62V89YQX7C-133" value="login" style="rounded=0;whiteSpace=wrap;html=1;" parent="1" vertex="1">
          <mxGeometry x="1030" y="650" width="120" height="30" as="geometry" />
        </mxCell>
        <mxCell id="ukiX_DLCDr62V89YQX7C-134" value="password" style="rounded=0;whiteSpace=wrap;html=1;" parent="1" vertex="1">
          <mxGeometry x="1030" y="680" width="120" height="30" as="geometry" />
        </mxCell>
        <mxCell id="ukiX_DLCDr62V89YQX7C-135" value="&lt;div style=&quot;text-align: start;&quot;&gt;roles&lt;/div&gt;" style="rounded=0;whiteSpace=wrap;html=1;" parent="1" vertex="1">
          <mxGeometry x="1280" y="647.5" width="120" height="60" as="geometry" />
        </mxCell>
        <mxCell id="ukiX_DLCDr62V89YQX7C-136" value="id" style="rounded=0;whiteSpace=wrap;html=1;" parent="1" vertex="1">
          <mxGeometry x="1280" y="707.5" width="120" height="35" as="geometry" />
        </mxCell>
        <mxCell id="ukiX_DLCDr62V89YQX7C-137" value="role" style="rounded=0;whiteSpace=wrap;html=1;" parent="1" vertex="1">
          <mxGeometry x="1280" y="742.5" width="120" height="30" as="geometry" />
        </mxCell>
        <mxCell id="ukiX_DLCDr62V89YQX7C-143" style="edgeStyle=orthogonalEdgeStyle;rounded=0;orthogonalLoop=1;jettySize=auto;html=1;entryX=0;entryY=0.5;entryDx=0;entryDy=0;" parent="1" source="ukiX_DLCDr62V89YQX7C-142" target="ukiX_DLCDr62V89YQX7C-136" edge="1">
          <mxGeometry relative="1" as="geometry" />
        </mxCell>
        <mxCell id="ukiX_DLCDr62V89YQX7C-142" value="id_r&lt;span style=&quot;text-align: start;&quot;&gt;oles&lt;/span&gt;" style="rounded=0;whiteSpace=wrap;html=1;" parent="1" vertex="1">
          <mxGeometry x="1030" y="710" width="120" height="30" as="geometry" />
        </mxCell>
        <mxCell id="cgydOeUK18yUY1shKPtk-3" value="title" style="rounded=0;whiteSpace=wrap;html=1;" parent="1" vertex="1">
          <mxGeometry x="20" y="480" width="120" height="30" as="geometry" />
        </mxCell>
        <mxCell id="cgydOeUK18yUY1shKPtk-4" value="file_path" style="rounded=0;whiteSpace=wrap;html=1;" parent="1" vertex="1">
          <mxGeometry x="20" y="510" width="120" height="30" as="geometry" />
        </mxCell>
      </root>
    </mxGraphModel>
  </diagram>
</mxfile>
